Coordinates
version=1
nRows=8
nColumns=40
inDegrees=yes

Units are S.I. units (second, meters, Newtons, ...)
Angles are in degrees.

endheader
time	pelvis_tilt	pelvis_list	pelvis_rotation	pelvis_tx	pelvis_ty	pelvis_tz	hip_flexion_r	hip_adduction_r	hip_rotation_r	knee_angle_r	knee_angle_r_beta	ankle_angle_r	subtalar_angle_r	mtp_angle_r	hip_flexion_l	hip_adduction_l	hip_rotation_l	knee_angle_l	knee_angle_l_beta	ankle_angle_l	subtalar_angle_l	mtp_angle_l	lumbar_extension	lumbar_bending	lumbar_rotation	arm_flex_r	arm_add_r	arm_rot_r	elbow_flex_r	pro_sup_r	wrist_flex_r	wrist_dev_r	arm_flex_l	arm_add_l	arm_rot_l	elbow_flex_l	pro_sup_l	wrist_flex_l	wrist_dev_l
     10.04000000	     -1.45749863	     -4.86957560	      4.25681129	      1.05145243	      0.93012869	      0.51412981	     12.17375323	      1.86841121	    -15.26655681	     20.22347975	     20.22347975	     11.85010134	      1.67663633	     -3.78772465	     31.74567500	    -14.58844441	      2.09957852	     67.20774327	     67.20774327	      3.79659779	    -16.85369847	      6.73043174	    -12.14077025	      5.15812731	      2.31518590	     13.01463365	    -22.32171662	      0.50059593	     56.51165402	     44.96648233	      0.00000000	      0.00000000	      1.58869348	     -9.20387811	    -15.97386376	     34.94963893	     44.97840991	      0.00000000	      0.00000000
     10.05371429	     -1.50608401	     -4.82235313	      4.43330754	      1.05040238	      0.93086372	      0.51486798	     11.55398913	      1.87974200	    -15.74865499	     19.63316758	     19.63316758	     11.98292882	      2.47981733	     -3.82627873	     32.46999845	    -14.65903782	      1.57097545	     64.95600197	     64.95600197	      4.29509022	    -17.28379936	      6.97750961	    -12.13412471	      5.23537737	      2.60396322	     14.37653879	    -22.44630294	      0.37783501	     56.99505012	     44.96943128	      0.00000000	      0.00000000	      1.21911476	     -9.21255903	    -15.95626819	     34.33292659	     44.99719150	      0.00000000	      0.00000000
     10.06742857	     -1.68809644	     -4.78472165	      4.57263781	      1.04925782	      0.93121943	      0.51562238	     11.20389185	      1.92121078	    -15.95554667	     19.23849742	     19.23849742	     12.14851145	      2.76565833	     -3.84229754	     33.22619599	    -14.73306542	      0.97067743	     62.50720414	     62.50720414	      4.74312253	    -17.51708111	      7.22776614	    -11.98698050	      5.30540151	      3.13294643	     15.57283296	    -22.76865108	      0.23399136	     57.41749793	     44.96888204	      0.00000000	      0.00000000	      0.85305713	     -9.14298805	    -15.95035107	     34.09427174	     44.99838064	      0.00000000	      0.00000000
     10.08114286	     -1.60337282	     -4.75635533	      4.77708887	      1.04835864	      0.93212882	      0.51612632	     10.30657206	      1.97749938	    -16.57653682	     18.40229251	     18.40229251	     12.21820962	      3.84028289	     -3.82869772	     33.44353516	    -14.68613351	      0.49221730	     59.66469843	     59.66469843	      5.18998401	    -17.78493558	      7.70795812	    -12.13739873	      5.42403275	      3.22293265	     17.00183092	    -22.77057941	      0.21927564	     57.98630666	     44.96444381	      0.00000000	      0.00000000	      0.39732734	     -9.20685490	    -15.91967533	     33.56623962	     45.01280363	      0.00000000	      0.00000000
     10.09485714	     -1.75577063	     -4.73457960	      4.90541702	      1.04726202	      0.93241708	      0.51660820	      9.90894299	      2.02808949	    -16.82763539	     17.96994479	     17.96994479	     12.38457207	      4.25397253	     -3.85912683	     33.81138527	    -14.61948217	     -0.02764763	     56.64774789	     56.64774789	      5.58314379	    -17.80719347	      8.15559197	    -12.02714598	      5.50377620	      3.64880513	     18.17961338	    -22.97342731	      0.14924538	     58.38250237	     44.96296420	      0.00000000	      0.00000000	      0.01955246	     -9.17431140	    -15.91011309	     33.32790129	     45.01722627	      0.00000000	      0.00000000
     10.10857143	     -1.76142811	     -4.70462414	      5.06987145	      1.04625750	      0.93289575	      0.51677201	      9.25016896	      2.06241823	    -17.26036429	     17.35107644	     17.35107644	     12.48177661	      4.97748778	     -3.86719487	     33.84176852	    -14.44381817	     -0.44330752	     53.34650986	     53.34650986	      5.89113077	    -17.76105597	      8.75173010	    -12.10641260	      5.64329194	      3.82704995	     19.47601653	    -23.00767809	      0.13920747	     58.80213682	     44.96127120	      0.00000000	      0.00000000	     -0.40717888	     -9.18348510	    -15.88319487	     33.02048515	     45.02618367	      0.00000000	      0.00000000
     10.12228571	     -1.95701911	     -4.69453747	      5.17401745	      1.04510853	      0.93287282	      0.51677628	      8.93507525	      2.09330393	    -17.45731994	     16.94983685	     16.94983685	     12.60852823	      5.35197571	     -3.90303849	     33.96682158	    -14.21295814	     -0.80425952	     49.89383064	     49.89383064	      6.20955837	    -17.52297879	      9.22575670	    -11.96282490	      5.76886289	      4.14401022	     20.64792791	    -23.15743574	      0.07106993	     59.16699736	     44.96074524	      0.00000000	      0.00000000	     -0.76752952	     -9.09620530	    -15.86168168	     32.85323993	     45.02860813	      0.00000000	      0.00000000
     10.13600000	     -2.02849396	     -4.72374561	      5.32459908	      1.04400046	      0.93292125	      0.51654369	      8.47218210	      2.16335596	    -17.76687449	     16.53478867	     16.53478867	     12.78333754	      5.77728410	     -3.97885517	     33.84919669	    -13.92786976	     -0.97891287	     46.25411282	     46.25411282	      6.32897704	    -17.12283377	      9.69142247	    -11.97805749	      5.95402691	      4.33114947	     21.80336209	    -23.09281608	      0.05053582	     59.50584717	     44.96041281	      0.00000000	      0.00000000	     -1.17960003	     -9.08022513	    -15.84424981	     32.68650088	     45.03490238	      0.00000000	      0.00000000
